<?xml version="1.0" standalone="no"?>
<!DOCTYPE svg PUBLIC "-//W3C//DTD SVG 20010904//EN"
 "http://www.w3.org/TR/2001/REC-SVG-20010904/DTD/svg10.dtd">
<svg version="1.0" xmlns="http://www.w3.org/2000/svg"
 width="624.000000pt" height="429.000000pt" viewBox="0 0 624.000000 429.000000"
 preserveAspectRatio="xMidYMid meet">

<g transform="translate(0.000000,429.000000) scale(0.100000,-0.100000)"
fill="#000000" stroke="none">
<path d="M2035 4219 c-292 -18 -546 -84 -802 -210 -638 -315 -1065 -917 -1153
-1629 -15 -122 -12 -381 5 -512 115 -874 778 -1587 1638 -1763 262 -53 594
-55 842 -4 436 89 842 329 1156 683 231 259 360 513 461 905 l33 126 0 315 c0
354 -10 430 -80 644 -115 346 -288 616 -564 878 -341 324 -772 519 -1231 558
-69 6 -138 12 -155 13 -16 2 -84 0 -150 -4z m-634 -1251 c0 -2 4 -316 9 -698
5 -485 11 -706 19 -733 16 -50 66 -106 116 -128 55 -26 154 -25 204 1 51 26
95 80 115 142 14 44 16 129 16 728 0 609 2 678 16 684 9 3 72 6 141 6 l124 0
-4 -677 c-4 -752 -4 -748 -71 -890 -44 -93 -108 -155 -206 -202 -71 -34 -81
-36 -195 -39 -200 -6 -297 23 -395 121 -62 61 -113 159 -136 262 -16 73 -32
610 -33 1168 l-1 257 140 0 c77 0 140 -1 141 -2z m1117 -75 c16 -43 71 -192
122 -330 51 -139 96 -253 100 -253 3 0 60 148 126 330 l119 330 90 0 c114 0
165 -8 165 -27 0 -19 -45 -147 -184 -522 l-117 -313 145 -437 c79 -240 146
-449 148 -466 l3 -30 -125 -3 -125 -2 -119 354 c-66 196 -123 353 -127 351 -9
-6 -13 -18 -144 -400 l-103 -300 -126 -3 c-125 -3 -126 -2 -126 20 0 40 137
462 270 830 l28 77 -158 426 c-183 495 -182 443 -3 444 l112 1 29 -77z"/>
<path d="M4749 2963 c-27 -3 -38 -10 -43 -26 -10 -37 -6 -1113 4 -1247 15
-188 57 -305 145 -399 89 -95 203 -127 417 -118 139 6 198 28 279 103 61 58
91 106 125 205 36 103 43 246 43 922 l1 557 -130 0 -130 0 -1 -437 c0 -241 -4
-558 -8 -705 -8 -244 -11 -271 -31 -312 -51 -105 -166 -151 -293 -115 -51 14
-122 83 -137 134 -14 48 -28 562 -29 1072 -1 210 -5 354 -10 358 -13 8 -158
14 -202 8z"/>
<path d="M5913 2963 l-33 -4 0 -890 0 -889 130 0 130 0 0 895 0 895 -97 -2
c-54 0 -113 -3 -130 -5z"/>
</g>
</svg>
